<svg width="29.000000" height="41.000000" viewBox="0 0 29 41" fill="none" xmlns="http://www.w3.org/2000/svg" xmlns:xlink="http://www.w3.org/1999/xlink">
	<desc>
			Created with Pixso.
	</desc>
	<defs>
		<filter id="filter_9_357_dd" x="0.000000" y="0.000000" width="29.000000" height="41.000000" filterUnits="userSpaceOnUse" color-interpolation-filters="sRGB">
			<feFlood flood-opacity="0" result="BackgroundImageFix"/>
			<feColorMatrix in="SourceAlpha" type="matrix" values="0 0 0 0 0 0 0 0 0 0 0 0 0 0 0 0 0 0 127 0" result="hardAlpha"/>
			<feOffset dx="0" dy="10"/>
			<feGaussianBlur stdDeviation="2"/>
			<feComposite in2="hardAlpha" operator="out" k2="-1" k3="1"/>
			<feColorMatrix type="matrix" values="0 0 0 0 1 0 0 0 0 1 0 0 0 0 1 0 0 0 0.15 0"/>
			<feBlend mode="normal" in2="BackgroundImageFix" result="effect_dropShadow_1"/>
			<feBlend mode="normal" in="SourceGraphic" in2="effect_dropShadow_1" result="shape"/>
		</filter>
	</defs>
	<g filter="url(#filter_9_357_dd)">
		<path id="3" d="M18.24 2.79L7.28 2.79L7.28 0L22.01 0L22.01 2.34L15.16 9.96L15.43 9.96C19.5 9.96 23 12.23 23 17.23C23 21.67 19.53 25 14.89 25C9.93 25 6 20.8 6 15.38L8.71 15.38C8.71 19.37 11.36 22.34 14.82 22.34C17.94 22.34 20.28 20.13 20.28 17.27C20.28 14.23 18.14 12.16 14.89 12.16L13.15 12.16L11.7 10.45L18.24 2.79Z" fill="#F6FFD2" fill-opacity="1.000000" fill-rule="nonzero"/>
	</g>
</svg>
