<svg width="326.163086" height="119.000000" viewBox="0 0 326.163 119" fill="none" xmlns="http://www.w3.org/2000/svg" xmlns:xlink="http://www.w3.org/1999/xlink">
	<desc>
			Created with Pixso.
	</desc>
	<defs>
		<filter id="filter_9_346_dd" x="0.000000" y="10.000000" width="316.000000" height="109.000000" filterUnits="userSpaceOnUse" color-interpolation-filters="sRGB">
			<feFlood flood-opacity="0" result="BackgroundImageFix"/>
			<feColorMatrix in="SourceAlpha" type="matrix" values="0 0 0 0 0 0 0 0 0 0 0 0 0 0 0 0 0 0 127 0" result="hardAlpha"/>
			<feOffset dx="0" dy="4"/>
			<feGaussianBlur stdDeviation="5"/>
			<feComposite in2="hardAlpha" operator="out" k2="-1" k3="1"/>
			<feColorMatrix type="matrix" values="0 0 0 0 1 0 0 0 0 1 0 0 0 0 1 0 0 0 0.35 0"/>
			<feBlend mode="normal" in2="BackgroundImageFix" result="effect_dropShadow_1"/>
			<feBlend mode="normal" in="SourceGraphic" in2="effect_dropShadow_1" result="shape"/>
		</filter>
		<filter id="filter_9_347_dd" x="15.000000" y="21.000000" width="286.000000" height="79.000000" filterUnits="userSpaceOnUse" color-interpolation-filters="sRGB">
			<feFlood flood-opacity="0" result="BackgroundImageFix"/>
			<feGaussianBlur in="BackgroundImage" stdDeviation="5"/>
			<feComposite in2="SourceAlpha" operator="in" result="effect_backgroundBlur_1"/>
			<feBlend mode="normal" in="SourceGraphic" in2="effect_backgroundBlur_1" result="shape"/>
		</filter>
		<filter id="filter_9_368_dd" x="283.000000" y="0.000000" width="43.163086" height="60.145691" filterUnits="userSpaceOnUse" color-interpolation-filters="sRGB">
			<feFlood flood-opacity="0" result="BackgroundImageFix"/>
			<feColorMatrix in="SourceAlpha" type="matrix" values="0 0 0 0 0 0 0 0 0 0 0 0 0 0 0 0 0 0 127 0" result="hardAlpha"/>
			<feOffset dx="0" dy="4"/>
			<feGaussianBlur stdDeviation="5"/>
			<feComposite in2="hardAlpha" operator="out" k2="-1" k3="1"/>
			<feColorMatrix type="matrix" values="0 0 0 0 1 0 0 0 0 1 0 0 0 0 1 0 0 0 0.35 0"/>
			<feBlend mode="normal" in2="BackgroundImageFix" result="effect_dropShadow_1"/>
			<feBlend mode="normal" in="SourceGraphic" in2="effect_dropShadow_1" result="shape"/>
		</filter>
	</defs>
	<g filter="url(#filter_9_346_dd)">
		<g filter="url(#filter_9_347_dd)">
			<path id="image 6" d="M50 21L301 21L301 65C301 84.33 285.32 100 266 100L15 100L15 56C15 36.66 30.67 21 50 21Z" fill="#FFFFFF" fill-opacity="0.300000" fill-rule="evenodd"/>
			<path id="image 6" d="M301 21L301 65C301 84.33 285.32 100 266 100L15 100L15 56C15 36.66 30.67 21 50 21L301 21ZM298 24L298 65C298 82.67 283.67 97 266 97L18 97L18 56C18 38.32 32.32 24 50 24L298 24Z" fill="#FFFFFF" fill-opacity="1.000000" fill-rule="evenodd"/>
		</g>
	</g>
	<circle id="Ellipse 1" cx="55.500000" cy="60.500000" r="25.500000" fill="#5E7600" fill-opacity="1.000000"/>
	<circle id="Ellipse 1" cx="55.500000" cy="60.500000" r="25.000000" stroke="#FFFFFF" stroke-opacity="1.000000" stroke-width="1.000000"/>
	<path id="5" d="M55.82 73C50.91 73 47 68.87 47 63.52L49.72 63.52C49.72 67.47 52.31 70.34 55.82 70.34C59.06 70.34 61.27 68.13 61.27 64.99C61.27 61.74 58.92 59.71 55.21 59.71L49.35 59.71L48.09 58.24L48.63 48L62.16 48L62.16 50.79L51.02 50.79L50.67 57.47L55.48 57.47C60.69 57.47 64 60.41 64 64.99C64 69.57 60.55 73 55.82 73Z" fill="#F6FFD2" fill-opacity="1.000000" fill-rule="nonzero"/>
	<path id="Lorem ipsum dolor sit amet, consectetur adipiscing elit" d="M141.38 47.18C141.03 47.18 140.79 46.94 140.79 46.59C140.79 46.22 141.03 45.98 141.38 45.98C141.74 45.98 141.98 46.22 141.98 46.59C141.98 46.94 141.74 47.18 141.38 47.18ZM232.9 47.18C232.55 47.18 232.31 46.94 232.31 46.59C232.31 46.22 232.55 45.98 232.9 45.98C233.26 45.98 233.5 46.22 233.5 46.59C233.5 46.94 233.26 47.18 232.9 47.18ZM98.64 56L92.07 56L92.07 46.2L93.19 46.2L93.19 54.93L98.64 54.93L98.64 56ZM193.29 46.2L193.29 56L192.31 56L192.19 54.58C191.61 55.6 190.59 56.2 189.42 56.2C187.51 56.2 186.08 54.62 186.08 52.51C186.08 50.37 187.5 48.79 189.42 48.79C190.59 48.79 191.6 49.39 192.17 50.4L192.17 46.2L193.29 46.2ZM204.02 46.2L205.14 46.2L205.14 56L204.02 56L204.02 46.2ZM239.93 50.04L237.8 50.04L237.8 52.72C237.8 54.43 238.46 55.14 239.93 55.14L239.93 56.2C237.63 56.2 236.68 55.03 236.68 52.72L236.68 50.04L235.21 50.04L235.21 49.57L237.34 47.43L237.8 47.43L237.8 49L239.93 49L239.93 50.04ZM280.67 50.04L278.54 50.04L278.54 52.72C278.54 54.43 279.2 55.14 280.67 55.14L280.67 56.2C278.37 56.2 277.42 55.03 277.42 52.72L277.42 50.04L275.95 50.04L275.95 49.57L278.08 47.43L278.54 47.43L278.54 49L280.67 49L280.67 50.04ZM103.85 56.2C101.75 56.2 100.17 54.62 100.17 52.51C100.17 50.37 101.75 48.79 103.85 48.79C106 48.79 107.57 50.3 107.57 52.51C107.57 54.69 106 56.2 103.85 56.2ZM110.32 51.22C110.9 49.71 112.07 48.79 113.53 48.79L113.53 49.96C111.58 49.96 110.32 51.51 110.32 54.01L110.32 56L109.19 56L109.19 49L110.16 49L110.32 51.22ZM121.54 52.51C121.54 52.61 121.53 52.7 121.53 52.82L115.47 52.82C115.59 54.26 116.59 55.31 117.92 55.31C118.9 55.31 119.7 54.81 120.16 54.01L121.31 54.01C120.73 55.37 119.48 56.2 117.92 56.2C115.86 56.2 114.33 54.62 114.33 52.51C114.33 50.37 115.83 48.79 117.92 48.79C120.04 48.79 121.54 50.3 121.54 52.51ZM126.46 49.84C125.2 49.84 124.34 50.93 124.34 52.54L124.34 56L123.22 56L123.22 49L124.19 49L124.33 50.34C124.85 49.37 125.73 48.79 126.79 48.79C128.04 48.79 129 49.58 129.44 50.86C129.9 49.6 130.91 48.79 132.14 48.79C133.85 48.79 135.06 50.34 135.06 52.54L135.06 56L133.93 56L133.93 52.54C133.93 50.91 133.07 49.84 131.8 49.84C130.57 49.84 129.71 50.93 129.71 52.54L129.71 56L128.58 56L128.58 52.54C128.58 50.91 127.74 49.84 126.46 49.84ZM144.21 58.79L144.21 49L145.17 49L145.32 50.38C145.9 49.39 146.9 48.79 148.07 48.79C149.98 48.79 151.41 50.37 151.41 52.48C151.41 54.62 149.99 56.2 148.07 56.2C146.91 56.2 145.9 55.62 145.33 54.61L145.33 58.79L144.21 58.79ZM153.84 50.83C153.84 52.83 158.49 51.14 158.49 54.13C158.49 55.31 157.35 56.2 155.73 56.2C153.95 56.2 152.71 55.45 152.54 54.02L153.6 54.02C153.75 54.89 154.48 55.35 155.75 55.35C156.7 55.35 157.43 54.82 157.43 54.15C157.43 52.07 152.76 53.66 152.76 50.84C152.76 49.71 153.87 48.79 155.49 48.79C157.21 48.79 158.31 49.61 158.42 51L157.38 51C157.33 50.23 156.73 49.62 155.48 49.62C154.58 49.62 153.84 50.16 153.84 50.83ZM172.31 49.84C171.05 49.84 170.19 50.93 170.19 52.54L170.19 56L169.07 56L169.07 49L170.04 49L170.18 50.34C170.7 49.37 171.58 48.79 172.64 48.79C173.89 48.79 174.86 49.58 175.29 50.86C175.75 49.6 176.76 48.79 177.99 48.79C179.7 48.79 180.91 50.34 180.91 52.54L180.91 56L179.78 56L179.78 52.54C179.78 50.91 178.92 49.84 177.65 49.84C176.42 49.84 175.56 50.93 175.56 52.54L175.56 56L174.43 56L174.43 52.54C174.43 50.91 173.59 49.84 172.31 49.84ZM198.67 56.2C196.57 56.2 194.99 54.62 194.99 52.51C194.99 50.37 196.57 48.79 198.67 48.79C200.82 48.79 202.39 50.3 202.39 52.51C202.39 54.69 200.82 56.2 198.67 56.2ZM210.5 56.2C208.4 56.2 206.82 54.62 206.82 52.51C206.82 50.37 208.4 48.79 210.5 48.79C212.65 48.79 214.22 50.3 214.22 52.51C214.22 54.69 212.65 56.2 210.5 56.2ZM216.97 51.22C217.56 49.71 218.72 48.79 220.19 48.79L220.19 49.96C218.23 49.96 216.97 51.51 216.97 54.01L216.97 56L215.85 56L215.85 49L216.81 49L216.97 51.22ZM225.96 50.83C225.96 52.83 230.6 51.14 230.6 54.13C230.6 55.31 229.47 56.2 227.85 56.2C226.07 56.2 224.82 55.45 224.65 54.02L225.72 54.02C225.87 54.89 226.6 55.35 227.86 55.35C228.81 55.35 229.54 54.82 229.54 54.15C229.54 52.07 224.88 53.66 224.88 50.84C224.88 49.71 225.98 48.79 227.61 48.79C229.33 48.79 230.42 49.61 230.53 51L229.5 51C229.44 50.23 228.84 49.62 227.59 49.62C226.7 49.62 225.96 50.16 225.96 50.83ZM250.93 49L251.9 49L251.9 56L250.93 56L250.79 54.55C250.23 55.59 249.22 56.2 248.03 56.2C246.12 56.2 244.66 54.62 244.66 52.51C244.66 50.37 246.12 48.79 248.03 48.79C249.22 48.79 250.22 49.4 250.78 50.44L250.93 49ZM257.27 49.84C256.01 49.84 255.16 50.93 255.16 52.54L255.16 56L254.04 56L254.04 49L255.01 49L255.15 50.34C255.67 49.37 256.55 48.79 257.61 48.79C258.85 48.79 259.82 49.58 260.26 50.86C260.72 49.6 261.73 48.79 262.96 48.79C264.66 48.79 265.87 50.34 265.87 52.54L265.87 56L264.75 56L264.75 52.54C264.75 50.91 263.88 49.84 262.62 49.84C261.39 49.84 260.52 50.93 260.52 52.54L260.52 56L259.4 56L259.4 52.54C259.4 50.91 258.56 49.84 257.27 49.84ZM274.77 52.51C274.77 52.61 274.76 52.7 274.76 52.82L268.7 52.82C268.82 54.26 269.82 55.31 271.15 55.31C272.13 55.31 272.93 54.81 273.39 54.01L274.54 54.01C273.96 55.37 272.71 56.2 271.15 56.2C269.09 56.2 267.56 54.62 267.56 52.51C267.56 50.37 269.06 48.79 271.15 48.79C273.27 48.79 274.77 50.3 274.77 52.51ZM141.94 49L141.94 56L140.82 56L140.82 49L141.94 49ZM163.5 55.14C164.86 55.14 165.78 54.05 165.78 52.45L165.78 49L166.9 49L166.9 56L165.94 56L165.8 54.61C165.25 55.59 164.3 56.2 163.16 56.2C161.39 56.2 160.13 54.64 160.13 52.45L160.13 49L161.25 49L161.25 52.45C161.25 54.06 162.14 55.14 163.5 55.14ZM233.46 49L233.46 56L232.34 56L232.34 49L233.46 49ZM117.92 49.71C116.59 49.71 115.59 50.73 115.47 52.17L120.41 52.17C120.28 50.7 119.3 49.71 117.92 49.71ZM271.15 49.71C269.82 49.71 268.82 50.73 268.7 52.17L273.64 52.17C273.51 50.7 272.53 49.71 271.15 49.71ZM147.78 55.18C149.22 55.18 150.28 54.06 150.28 52.5C150.28 50.93 149.22 49.79 147.78 49.79C146.31 49.79 145.33 50.9 145.33 52.5C145.33 54.08 146.34 55.18 147.78 55.18ZM189.71 49.79C188.27 49.79 187.2 50.91 187.2 52.5C187.2 54.05 188.28 55.18 189.71 55.18C191.18 55.18 192.17 54.09 192.17 52.5C192.17 50.91 191.17 49.79 189.71 49.79ZM248.33 49.79C246.83 49.79 245.78 50.91 245.78 52.5C245.78 54.05 246.86 55.18 248.33 55.18C249.77 55.18 250.78 54.09 250.78 52.5C250.78 50.91 249.77 49.79 248.33 49.79ZM103.85 49.84C102.38 49.84 101.29 50.97 101.29 52.5C101.29 54.02 102.39 55.14 103.85 55.14C105.4 55.14 106.45 54.08 106.45 52.5C106.45 50.91 105.39 49.84 103.85 49.84ZM198.67 49.84C197.2 49.84 196.11 50.97 196.11 52.5C196.11 54.02 197.21 55.14 198.67 55.14C200.22 55.14 201.27 54.08 201.27 52.5C201.27 50.91 200.21 49.84 198.67 49.84ZM210.5 49.84C209.03 49.84 207.94 50.97 207.94 52.5C207.94 54.02 209.04 55.14 210.5 55.14C212.05 55.14 213.1 54.08 213.1 52.5C213.1 50.91 212.04 49.84 210.5 49.84ZM282.96 58L282.01 58L282.35 54.93L283.59 54.93L282.96 58ZM198.59 65.18C198.24 65.18 198 64.94 198 64.59C198 64.22 198.24 63.98 198.59 63.98C198.95 63.98 199.19 64.22 199.19 64.59C199.19 64.94 198.95 65.18 198.59 65.18ZM210.95 65.18C210.6 65.18 210.36 64.94 210.36 64.59C210.36 64.22 210.6 63.98 210.95 63.98C211.31 63.98 211.55 64.22 211.55 64.59C211.55 64.94 211.31 65.18 210.95 65.18ZM229.86 65.18C229.51 65.18 229.27 64.94 229.27 64.59C229.27 64.22 229.51 63.98 229.86 63.98C230.22 63.98 230.46 64.22 230.46 64.59C230.46 64.94 230.22 65.18 229.86 65.18ZM266.36 65.18C266.01 65.18 265.77 64.94 265.77 64.59C265.77 64.22 266.01 63.98 266.36 63.98C266.72 63.98 266.96 64.22 266.96 64.59C266.96 64.94 266.72 65.18 266.36 65.18ZM195.76 64.2L195.76 74L194.78 74L194.65 72.58C194.08 73.6 193.06 74.2 191.88 74.2C189.98 74.2 188.55 72.62 188.55 70.51C188.55 68.37 189.96 66.79 191.88 66.79C193.06 66.79 194.06 67.39 194.64 68.4L194.64 64.2L195.76 64.2ZM262.42 64.2L263.54 64.2L263.54 74L262.42 74L262.42 64.2ZM145.9 68.04L143.78 68.04L143.78 70.72C143.78 72.43 144.43 73.14 145.9 73.14L145.9 74.2C143.61 74.2 142.66 73.03 142.66 70.72L142.66 68.04L141.19 68.04L141.19 67.57L143.32 65.43L143.78 65.43L143.78 67L145.9 67L145.9 68.04ZM160.2 68.04L158.07 68.04L158.07 70.72C158.07 72.43 158.73 73.14 160.2 73.14L160.2 74.2C157.9 74.2 156.95 73.03 156.95 70.72L156.95 68.04L155.48 68.04L155.48 67.57L157.61 65.43L158.07 65.43L158.07 67L160.2 67L160.2 68.04ZM273.39 68.04L271.26 68.04L271.26 70.72C271.26 72.43 271.92 73.14 273.39 73.14L273.39 74.2C271.09 74.2 270.14 73.03 270.14 70.72L270.14 68.04L268.67 68.04L268.67 67.57L270.8 65.43L271.26 65.43L271.26 67L273.39 67L273.39 68.04ZM95.26 67.79C93.79 67.79 92.72 68.95 92.72 70.5C92.72 72.05 93.79 73.18 95.26 73.18C96.43 73.18 97.35 72.53 97.71 71.53L98.88 71.53C98.42 73.14 97.06 74.2 95.26 74.2C93.17 74.2 91.6 72.62 91.6 70.51C91.6 68.37 93.15 66.79 95.26 66.79C97.04 66.79 98.4 67.84 98.86 69.45L97.7 69.45C97.32 68.46 96.41 67.79 95.26 67.79ZM103.54 74.2C101.44 74.2 99.86 72.62 99.86 70.51C99.86 68.37 101.44 66.79 103.54 66.79C105.69 66.79 107.26 68.3 107.26 70.51C107.26 72.69 105.69 74.2 103.54 74.2ZM112.28 67.84C110.93 67.84 110.01 68.93 110.01 70.54L110.01 74L108.89 74L108.89 67L109.85 67L109.99 68.38C110.54 67.39 111.46 66.79 112.61 66.79C114.42 66.79 115.66 68.34 115.66 70.54L115.66 74L114.54 74L114.54 70.54C114.54 68.91 113.65 67.84 112.28 67.84ZM118.66 68.83C118.66 70.83 123.31 69.14 123.31 72.13C123.31 73.31 122.17 74.2 120.55 74.2C118.77 74.2 117.52 73.45 117.36 72.02L118.42 72.02C118.57 72.89 119.3 73.35 120.56 73.35C121.52 73.35 122.24 72.82 122.24 72.15C122.24 70.07 117.58 71.66 117.58 68.84C117.58 67.71 118.69 66.79 120.31 66.79C122.03 66.79 123.13 67.61 123.24 69L122.2 69C122.15 68.23 121.54 67.62 120.3 67.62C119.4 67.62 118.66 68.16 118.66 68.83ZM131.57 70.51C131.57 70.61 131.55 70.7 131.55 70.82L125.49 70.82C125.62 72.26 126.61 73.31 127.94 73.31C128.92 73.31 129.72 72.81 130.18 72.01L131.33 72.01C130.75 73.37 129.51 74.2 127.94 74.2C125.88 74.2 124.36 72.62 124.36 70.51C124.36 68.37 125.85 66.79 127.94 66.79C130.07 66.79 131.57 68.3 131.57 70.51ZM136.44 67.79C134.97 67.79 133.89 68.95 133.89 70.5C133.89 72.05 134.97 73.18 136.44 73.18C137.6 73.18 138.53 72.53 138.89 71.53L140.05 71.53C139.59 73.14 138.23 74.2 136.44 74.2C134.34 74.2 132.77 72.62 132.77 70.51C132.77 68.37 134.33 66.79 136.44 66.79C138.22 66.79 139.58 67.84 140.04 69.45L138.88 69.45C138.5 68.46 137.59 67.79 136.44 67.79ZM154.3 70.51C154.3 70.61 154.29 70.7 154.29 70.82L148.23 70.82C148.35 72.26 149.35 73.31 150.68 73.31C151.66 73.31 152.46 72.81 152.92 72.01L154.07 72.01C153.49 73.37 152.24 74.2 150.68 74.2C148.62 74.2 147.09 72.62 147.09 70.51C147.09 68.37 148.59 66.79 150.68 66.79C152.8 66.79 154.3 68.3 154.3 70.51ZM171.99 69.22C172.57 67.71 173.74 66.79 175.2 66.79L175.2 67.96C173.25 67.96 171.99 69.51 171.99 72.01L171.99 74L170.86 74L170.86 67L171.83 67L171.99 69.22ZM185.93 67L186.9 67L186.9 74L185.93 74L185.79 72.55C185.23 73.59 184.22 74.2 183.03 74.2C181.11 74.2 179.66 72.62 179.66 70.51C179.66 68.37 181.11 66.79 183.03 66.79C184.22 66.79 185.22 67.4 185.78 68.44L185.93 67ZM201.41 76.79L201.41 67L202.38 67L202.52 68.38C203.11 67.39 204.1 66.79 205.28 66.79C207.18 66.79 208.61 68.37 208.61 70.48C208.61 72.62 207.2 74.2 205.28 74.2C204.12 74.2 203.11 73.62 202.53 72.61L202.53 76.79L201.41 76.79ZM214.59 68.83C214.59 70.83 219.24 69.14 219.24 72.13C219.24 73.31 218.1 74.2 216.48 74.2C214.7 74.2 213.45 73.45 213.29 72.02L214.35 72.02C214.5 72.89 215.23 73.35 216.49 73.35C217.44 73.35 218.17 72.82 218.17 72.15C218.17 70.07 213.51 71.66 213.51 68.84C213.51 67.71 214.61 66.79 216.24 66.79C217.96 66.79 219.05 67.61 219.16 69L218.13 69C218.07 68.23 217.47 67.62 216.22 67.62C215.33 67.62 214.59 68.16 214.59 68.83ZM223.95 67.79C222.48 67.79 221.41 68.95 221.41 70.5C221.41 72.05 222.48 73.18 223.95 73.18C225.11 73.18 226.04 72.53 226.4 71.53L227.57 71.53C227.1 73.14 225.75 74.2 223.95 74.2C221.85 74.2 220.29 72.62 220.29 70.51C220.29 68.37 221.84 66.79 223.95 66.79C225.73 66.79 227.09 67.84 227.55 69.45L226.39 69.45C226.01 68.46 225.1 67.79 223.95 67.79ZM236.06 67.84C234.72 67.84 233.8 68.93 233.8 70.54L233.8 74L232.67 74L232.67 67L233.64 67L233.78 68.38C234.33 67.39 235.25 66.79 236.4 66.79C238.2 66.79 239.45 68.34 239.45 70.54L239.45 74L238.33 74L238.33 70.54C238.33 68.91 237.44 67.84 236.06 67.84ZM244.84 76.49C246.24 76.49 247.22 75.4 247.22 73.81L247.22 72.5C246.65 73.49 245.64 74.09 244.46 74.09C242.55 74.09 241.13 72.51 241.13 70.44C241.13 68.34 242.55 66.79 244.46 66.79C245.65 66.79 246.66 67.37 247.24 68.38L247.36 67L248.34 67L248.34 73.81C248.34 75.97 246.9 77.52 244.84 77.52C243.12 77.52 241.79 76.46 241.37 74.84L242.47 74.84C242.85 75.86 243.74 76.49 244.84 76.49ZM260.75 70.51C260.75 70.61 260.73 70.7 260.73 70.82L254.67 70.82C254.8 72.26 255.79 73.31 257.12 73.31C258.1 73.31 258.9 72.81 259.36 72.01L260.51 72.01C259.93 73.37 258.69 74.2 257.12 74.2C255.06 74.2 253.54 72.62 253.54 70.51C253.54 68.37 255.03 66.79 257.12 66.79C259.25 66.79 260.75 68.3 260.75 70.51ZM165.3 73.14C166.65 73.14 167.57 72.05 167.57 70.45L167.57 67L168.7 67L168.7 74L167.73 74L167.59 72.61C167.05 73.59 166.09 74.2 164.96 74.2C163.18 74.2 161.92 72.64 161.92 70.45L161.92 67L163.04 67L163.04 70.45C163.04 72.06 163.93 73.14 165.3 73.14ZM199.15 67L199.15 74L198.03 74L198.03 67L199.15 67ZM211.51 67L211.51 74L210.39 74L210.39 67L211.51 67ZM230.42 67L230.42 74L229.3 74L229.3 67L230.42 67ZM266.92 67L266.92 74L265.8 74L265.8 67L266.92 67ZM127.94 67.71C126.61 67.71 125.62 68.73 125.49 70.17L130.43 70.17C130.31 68.7 129.33 67.71 127.94 67.71ZM150.68 67.71C149.35 67.71 148.35 68.73 148.23 70.17L153.17 70.17C153.04 68.7 152.06 67.71 150.68 67.71ZM257.12 67.71C255.79 67.71 254.8 68.73 254.67 70.17L259.61 70.17C259.49 68.7 258.5 67.71 257.12 67.71ZM183.32 67.79C181.83 67.79 180.78 68.91 180.78 70.5C180.78 72.05 181.86 73.18 183.32 73.18C184.77 73.18 185.78 72.09 185.78 70.5C185.78 68.91 184.77 67.79 183.32 67.79ZM192.17 67.79C190.73 67.79 189.67 68.91 189.67 70.5C189.67 72.05 190.75 73.18 192.17 73.18C193.64 73.18 194.64 72.09 194.64 70.5C194.64 68.91 193.63 67.79 192.17 67.79ZM204.98 73.18C206.43 73.18 207.49 72.06 207.49 70.5C207.49 68.93 206.43 67.79 204.98 67.79C203.51 67.79 202.53 68.9 202.53 70.5C202.53 72.08 203.54 73.18 204.98 73.18ZM244.76 67.79C243.3 67.79 242.25 68.91 242.25 70.44C242.25 71.96 243.32 73.06 244.76 73.06C246.23 73.06 247.22 71.98 247.22 70.44C247.22 68.89 246.2 67.79 244.76 67.79ZM103.54 67.84C102.07 67.84 100.98 68.97 100.98 70.5C100.98 72.02 102.08 73.14 103.54 73.14C105.09 73.14 106.14 72.08 106.14 70.5C106.14 68.91 105.08 67.84 103.54 67.84Z" fill="#F6FFD2" fill-opacity="1.000000" fill-rule="evenodd"/>
	<g filter="url(#filter_9_368_dd)">
		<path id="Vector" d="M298 17.57L298 40.83C298 41.15 298.42 41.26 298.58 40.98L310.26 20.87C312.81 16.49 309.64 11 304.57 11C300.94 11 298 13.94 298 17.57Z" fill="#FFFFFF" fill-opacity="1.000000" fill-rule="nonzero"/>
	</g>
</svg>
