<svg width="17.000000" height="25.000000" viewBox="0 0 17 25" fill="none" xmlns="http://www.w3.org/2000/svg" xmlns:xlink="http://www.w3.org/1999/xlink">
	<desc>
			Created with Pixso.
	</desc>
	<defs/>
	<path id="6" d="M0 16.18C0 14.23 0.61 12.37 1.81 10.52L8.77 0L11.85 0L6.96 7.48C7.44 7.37 7.96 7.34 8.51 7.34C13.4 7.34 17 11.01 17 16.18C17 21.39 13.4 25 8.51 25C3.56 25 0 21.25 0 16.18ZM2.59 16.18C2.59 19.72 5.11 22.34 8.51 22.34C11.98 22.34 14.4 19.86 14.4 16.18C14.4 12.55 11.94 10 8.51 10C5.08 10 2.59 12.62 2.59 16.18Z" fill="#F6FFD2" fill-opacity="1.000000" fill-rule="nonzero"/>
</svg>
