<svg width="316.000000" height="109.000000" viewBox="0 0 316 109" fill="none" xmlns="http://www.w3.org/2000/svg" xmlns:xlink="http://www.w3.org/1999/xlink">
	<desc>
			Created with Pixso.
	</desc>
	<defs>
		<filter id="filter_9_346_dd" x="0.000000" y="0.000000" width="316.000000" height="109.000000" filterUnits="userSpaceOnUse" color-interpolation-filters="sRGB">
			<feFlood flood-opacity="0" result="BackgroundImageFix"/>
			<feColorMatrix in="SourceAlpha" type="matrix" values="0 0 0 0 0 0 0 0 0 0 0 0 0 0 0 0 0 0 127 0" result="hardAlpha"/>
			<feOffset dx="0" dy="4"/>
			<feGaussianBlur stdDeviation="5"/>
			<feComposite in2="hardAlpha" operator="out" k2="-1" k3="1"/>
			<feColorMatrix type="matrix" values="0 0 0 0 1 0 0 0 0 1 0 0 0 0 1 0 0 0 0.35 0"/>
			<feBlend mode="normal" in2="BackgroundImageFix" result="effect_dropShadow_1"/>
			<feBlend mode="normal" in="SourceGraphic" in2="effect_dropShadow_1" result="shape"/>
		</filter>
		<filter id="filter_9_347_dd" x="15.000000" y="11.000000" width="286.000000" height="79.000000" filterUnits="userSpaceOnUse" color-interpolation-filters="sRGB">
			<feFlood flood-opacity="0" result="BackgroundImageFix"/>
			<feGaussianBlur in="BackgroundImage" stdDeviation="5"/>
			<feComposite in2="SourceAlpha" operator="in" result="effect_backgroundBlur_1"/>
			<feBlend mode="normal" in="SourceGraphic" in2="effect_backgroundBlur_1" result="shape"/>
		</filter>
	</defs>
	<g filter="url(#filter_9_346_dd)">
		<g filter="url(#filter_9_347_dd)">
			<path id="image 6" d="M50 11L301 11L301 55C301 74.33 285.32 90 266 90L15 90L15 46C15 26.67 30.67 11 50 11Z" fill="#FFFFFF" fill-opacity="0.300000" fill-rule="evenodd"/>
			<path id="image 6" d="M301 11L301 55C301 74.33 285.32 90 266 90L15 90L15 46C15 26.67 30.67 11 50 11L301 11ZM298 14L298 55C298 72.67 283.67 87 266 87L18 87L18 46C18 28.32 32.32 14 50 14L298 14Z" fill="#FFFFFF" fill-opacity="1.000000" fill-rule="evenodd"/>
		</g>
	</g>
</svg>
