<svg width="286.000000" height="79.000000" viewBox="0 0 286 79" fill="none" xmlns="http://www.w3.org/2000/svg" xmlns:xlink="http://www.w3.org/1999/xlink">
	<desc>
			Created with Pixso.
	</desc>
	<defs>
		<filter id="filter_9_347_dd" x="0.000000" y="0.000000" width="286.000000" height="79.000000" filterUnits="userSpaceOnUse" color-interpolation-filters="sRGB">
			<feFlood flood-opacity="0" result="BackgroundImageFix"/>
			<feGaussianBlur in="BackgroundImage" stdDeviation="5"/>
			<feComposite in2="SourceAlpha" operator="in" result="effect_backgroundBlur_1"/>
			<feBlend mode="normal" in="SourceGraphic" in2="effect_backgroundBlur_1" result="shape"/>
		</filter>
	</defs>
	<g filter="url(#filter_9_347_dd)">
		<path id="image 6" d="M35 0L286 0L286 44C286 63.33 270.32 79 251 79L0 79L0 35C0 15.67 15.67 0 35 0Z" fill="#FFFFFF" fill-opacity="0.300000" fill-rule="evenodd"/>
		<path id="image 6" d="M286 0L286 44C286 63.33 270.32 79 251 79L0 79L0 35C0 15.67 15.67 0 35 0L286 0ZM283 3L283 44C283 61.67 268.67 76 251 76L3 76L3 35C3 17.32 17.32 3 35 3L283 3Z" fill="#FFFFFF" fill-opacity="1.000000" fill-rule="evenodd"/>
	</g>
</svg>
